<svg xmlns="http://www.w3.org/2000/svg" xml:space="preserve" viewBox="38 38 212 212"><switch><g><path d="M195.93 44.5c0 5.51-4.47 9.98-9.98 9.98 5.51 0 9.98 4.47 9.98 9.98 0-5.51 4.47-9.98 9.98-9.98-5.51-.01-9.98-4.47-9.98-9.98zm-54.4 97.98a3.957 3.957 0 0 1-4.76-6.32l49.36-37.2a42.832 42.832 0 0 0-10.72-20.86l-26.68 20.11a3.957 3.957 0 0 1-4.76-6.32l25.4-19.14c-1.71-1.26-3.51-2.4-5.4-3.39l-43.24 32.58a3.957 3.957 0 0 1-4.76-6.32l39.36-29.66c-3.61-.98-7.4-1.52-11.33-1.52-23.72 0-42.95 19.23-42.95 42.95 0 11.93 4.87 22.73 12.73 30.51l41.17-31.03a3.957 3.957 0 0 1 4.76 6.32l-39.64 29.87c6.84 4.6 15.07 7.28 23.93 7.28 23.44 0 42.48-18.77 42.93-42.1l-45.4 34.24zm-70.01 26.67c1.93 0 3.61.21 5.04.62 1.43.42 2.6.99 3.54 1.73.93.74 1.62 1.63 2.07 2.68.45 1.05.67 2.2.67 3.45s-.22 2.4-.65 3.45c-.44 1.05-1.06 1.95-1.87 2.68-.81.74-1.81 1.32-2.99 1.73-1.18.42-2.52.62-4.03.62h-2.13c-.38 0-.73-.05-1.06-.16v7.94h-9.19v-24.75h6.57c1.27.01 2.61.01 4.03.01zm0 10.25c.61 0 1.12-.18 1.52-.54.4-.36.6-.8.6-1.32s-.2-.96-.6-1.32c-.4-.36-.91-.54-1.52-.54H70.1v3.71h1.42zm21.04-4.27c1.51 0 2.9.25 4.17.76s2.38 1.19 3.31 2.07c.93.87 1.66 1.89 2.17 3.07.52 1.17.78 2.42.78 3.76v9.13h-8.13l-.71-2.22c-.31.42-.67.8-1.1 1.14-.38.28-.85.54-1.43.77-.58.23-1.27.35-2.07.35-.97 0-1.84-.15-2.63-.44-.79-.29-1.46-.7-2.02-1.22-.55-.52-.98-1.13-1.27-1.84-.29-.71-.44-1.48-.44-2.33s.16-1.63.48-2.33.82-1.32 1.5-1.84 1.56-.92 2.63-1.22c1.07-.29 2.36-.44 3.87-.44h2.83c-.09-.17-.27-.33-.53-.47-.24-.13-.56-.24-.97-.34-.41-.1-.97-.15-1.68-.15-.45 0-.87.04-1.26.11s-.72.15-1.01.24c-.33.11-.64.22-.92.35l-3-4.06c.52-.52 1.15-.99 1.91-1.41.64-.35 1.41-.68 2.33-.97.92-.33 1.98-.47 3.19-.47zm.17 13.33c.45 0 .85-.25 1.22-.75s.55-1.31.55-2.44c-.99 0-1.71.2-2.16.6-.45.4-.67.89-.67 1.46 0 .28.11.53.34.77.22.24.46.36.72.36zm13.44-20.72h8.49v26.17h-8.49v-26.17zm21.21 7.39c1.37 0 2.65.24 3.85.71s2.25 1.12 3.15 1.94c.9.82 1.6 1.78 2.12 2.88s.78 2.28.78 3.53v1.62h-11.31c.09.38.27.71.53.99.21.26.53.48.96.67.42.19.99.28 1.7.28.45 0 .87-.07 1.26-.21.39-.14.72-.31 1.01-.5.33-.21.64-.45.92-.71l3.01 4.77c-.52.52-1.16.99-1.91 1.41-.64.35-1.41.68-2.33.97-.92.29-1.98.44-3.18.44-1.51 0-2.9-.25-4.17-.74s-2.38-1.17-3.31-2.02a9.012 9.012 0 0 1-2.17-2.99c-.52-1.14-.78-2.36-.78-3.66s.26-2.52.78-3.66a9.625 9.625 0 0 1 2.12-2.99c.9-.85 1.95-1.52 3.15-2.02 1.17-.47 2.46-.71 3.82-.71zm1.59 7.32c0-.38-.15-.66-.46-.85-.31-.19-.68-.28-1.13-.28-.45 0-.83.09-1.13.28-.31.19-.46.47-.46.85h3.18zm35.18-1.67c1.06.21 2 .57 2.83 1.08.71.44 1.36 1.07 1.95 1.87.59.8.88 1.86.88 3.17 0 .96-.21 1.86-.64 2.71-.42.85-1.11 1.59-2.07 2.22s-2.19 1.13-3.71 1.5-3.39.56-5.6.56h-7.42c-1.13 0-2.19-.08-3.18-.23v-24.52h10.43c1.98 0 3.68.17 5.09.52 1.41.35 2.57.83 3.46 1.43.9.61 1.55 1.31 1.96 2.11.41.8.62 1.63.62 2.51 0 1.01-.24 1.84-.73 2.48-.48.64-1.01 1.14-1.57 1.5-.68.4-1.45.71-2.3.91v.18zm-7.77-2.65h1.24c.61 0 1.09-.13 1.43-.4.34-.27.51-.6.51-.99s-.17-.72-.51-.99c-.34-.27-.82-.4-1.43-.4h-1.24v2.78zm1.41 9.55c.71 0 1.24-.16 1.59-.48.35-.32.53-.75.53-1.29s-.18-.97-.53-1.29c-.35-.32-.88-.48-1.59-.48h-1.41v3.54h1.41zm14.85-19.94h8.49v26.17h-8.49v-26.17zm18.39 26.2c-.9 0-1.73-.18-2.49-.53-.77-.36-1.44-.9-2.02-1.64-.58-.74-1.03-1.68-1.36-2.84-.33-1.16-.5-2.53-.5-4.12v-9.65h8.49v9.9c0 .71.15 1.24.44 1.59.29.35.62.53.97.53s.68-.18.97-.53c.29-.35.44-.88.44-1.59v-9.9h8.49v18.74h-8.13l-.71-2.12c-.31.4-.67.77-1.1 1.09-.38.27-.85.51-1.43.73-.57.23-1.26.34-2.06.34zm26.16-18.81c1.37 0 2.65.24 3.85.71s2.25 1.12 3.15 1.94c.9.82 1.6 1.78 2.12 2.88s.78 2.28.78 3.53v1.62h-11.31c.09.38.27.71.53.99.21.26.53.48.96.67.42.19.99.28 1.7.28.45 0 .87-.07 1.26-.21.39-.14.72-.31 1.01-.5.33-.21.64-.45.92-.71l3.01 4.77c-.52.52-1.16.99-1.91 1.41-.64.35-1.41.68-2.33.97-.92.29-1.98.44-3.18.44-1.51 0-2.9-.25-4.17-.74s-2.38-1.17-3.31-2.02a9.012 9.012 0 0 1-2.17-2.99c-.52-1.14-.78-2.36-.78-3.66s.26-2.52.78-3.66a9.625 9.625 0 0 1 2.12-2.99c.9-.85 1.95-1.52 3.15-2.02 1.17-.47 2.45-.71 3.82-.71zm1.59 7.32c0-.38-.15-.66-.46-.85-.31-.19-.68-.28-1.13-.28-.45 0-.83.09-1.13.28-.31.19-.46.47-.46.85h3.18zM100.79 218.8c.32 0 .56-.07.74-.22.17-.15.26-.31.26-.49 0-.2-.17-.38-.5-.53-.33-.15-.75-.32-1.25-.5s-1.04-.4-1.62-.65c-.58-.25-1.12-.58-1.62-.99s-.92-.92-1.25-1.51c-.33-.6-.5-1.33-.5-2.2 0-.68.17-1.34.5-1.98.33-.64.81-1.21 1.42-1.7.62-.5 1.36-.9 2.24-1.2s1.86-.45 2.96-.45c1.13 0 2.12.15 2.95.44.83.29 1.53.6 2.1.94.67.42 1.23.88 1.7 1.38l-2.38 3.67c-.3-.24-.62-.45-.97-.64-.3-.17-.65-.33-1.04-.46s-.8-.2-1.24-.2c-.32 0-.56.08-.74.23-.17.15-.26.31-.26.48 0 .21.17.38.5.53.33.15.75.32 1.25.5s1.04.4 1.62.66c.58.26 1.12.59 1.62.99s.92.9 1.25 1.5c.33.6.5 1.33.5 2.2 0 .68-.17 1.34-.5 1.98-.33.64-.81 1.21-1.42 1.7-.62.5-1.36.9-2.24 1.2s-1.86.45-2.96.45c-1.38 0-2.56-.15-3.54-.46-.98-.31-1.78-.65-2.41-1.04-.73-.43-1.33-.93-1.8-1.5l2.38-3.6c.35.29.74.54 1.17.75.38.18.83.35 1.35.5.52.15 1.1.22 1.73.22zm9.25-3.15v-5h1.75v-4.25h6v4.25h2.25v5h-2.25v2c0 .47.11.82.34 1.06.22.24.53.35.91.35h.36c.11 0 .21-.01.31-.03.1-.02.21-.04.33-.08v4.73c-.2.05-.42.09-.65.12a12.14 12.14 0 0 1-1.6.12c-1.88 0-3.35-.52-4.41-1.57s-1.59-2.61-1.59-4.69v-2.01h-1.75zm17 8.28c-.63 0-1.22-.12-1.76-.38s-1.02-.64-1.42-1.16-.73-1.19-.96-2.01c-.23-.82-.35-1.79-.35-2.91v-6.82h6v7c0 .5.1.88.31 1.12.21.25.44.38.69.38s.48-.12.69-.38c.21-.25.31-.62.31-1.12v-7h6v13.25h-5.75l-.5-1.5c-.22.28-.47.54-.78.77-.27.19-.6.36-1.01.52-.41.16-.9.24-1.47.24zm11.5-6.65c0-1.06.15-2.01.44-2.84.29-.83.68-1.53 1.16-2.09.48-.56 1.04-.99 1.68-1.28.63-.29 1.29-.44 1.97-.44.63 0 1.17.1 1.6.3.43.2.79.41 1.08.64.32.28.59.58.83.91v-7.07h6v18.5h-5.5l-.5-1.45c-.23.28-.51.53-.83.75-.28.18-.64.35-1.08.5-.43.15-.97.23-1.6.23-.68 0-1.34-.15-1.97-.44-.63-.29-1.19-.72-1.68-1.28-.48-.56-.87-1.25-1.16-2.08-.29-.84-.44-1.79-.44-2.86zm6.25.17c0 .62.13 1.08.4 1.38.27.3.59.45.97.45s.71-.15.97-.45c.27-.3.4-.76.4-1.38s-.13-1.08-.4-1.38c-.27-.3-.59-.45-.97-.45s-.71.15-.97.45c-.27.3-.4.76-.4 1.38zm11-13.05h6v4.75h-6v-4.75zm6 6.25v13.25h-6v-13.25h6zm2 6.63c0-.92.19-1.78.56-2.59s.9-1.51 1.56-2.11a7.54 7.54 0 0 1 2.4-1.43c.93-.35 1.97-.52 3.1-.52 1.12 0 2.15.17 3.09.52s1.75.82 2.41 1.43c.67.6 1.19 1.31 1.56 2.11s.56 1.67.56 2.59-.19 1.78-.56 2.59-.9 1.51-1.56 2.11a7.48 7.48 0 0 1-2.41 1.43c-.94.35-1.97.52-3.09.52-1.13 0-2.17-.17-3.1-.52-.93-.35-1.73-.82-2.4-1.43-.67-.6-1.19-1.31-1.56-2.11s-.56-1.68-.56-2.59zm9.25 0c0-.46-.16-.83-.49-1.11-.33-.28-.7-.42-1.14-.42s-.81.14-1.14.42c-.33.28-.49.65-.49 1.11s.16.83.49 1.11c.33.28.7.42 1.14.42s.81-.14 1.14-.42c.33-.28.49-.65.49-1.11zm19.13 2.58c0 .56-.12 1.08-.38 1.57-.25.49-.62.92-1.11 1.29-.49.37-1.1.67-1.84.88s-1.58.32-2.55.32c-1.05 0-1.96-.12-2.72-.36-.77-.24-1.42-.51-1.95-.81a6.99 6.99 0 0 1-1.58-1.2l1.88-2.84c.25.21.53.39.85.55.28.15.61.27.99.38s.8.16 1.29.16c.18 0 .33-.05.45-.14.12-.09.17-.2.17-.33 0-.11-.12-.22-.36-.33-.24-.11-.54-.23-.9-.37-.36-.14-.75-.31-1.17-.5s-.82-.44-1.17-.74-.66-.67-.9-1.12-.36-.97-.36-1.59c0-.56.12-1.08.38-1.57.25-.49.62-.92 1.11-1.29.49-.37 1.1-.67 1.84-.88s1.58-.33 2.55-.33c.85 0 1.61.11 2.29.34.68.22 1.25.47 1.74.74.55.3 1.04.65 1.47 1.05l-1.88 2.89c-.2-.16-.42-.31-.67-.45-.22-.12-.47-.22-.76-.31-.29-.09-.6-.13-.94-.13-.18 0-.33.05-.45.14s-.17.2-.17.33.12.24.36.34.54.22.9.36c.36.14.75.31 1.17.5s.82.44 1.17.74.66.67.9 1.12c.23.44.35.97.35 1.59zM-104.46 44.5c0 5.51-4.47 9.98-9.98 9.98 5.51 0 9.98 4.47 9.98 9.98 0-5.51 4.47-9.98 9.98-9.98-5.51-.01-9.98-4.47-9.98-9.98zm-54.78 97.98a3.957 3.957 0 0 1-4.76-6.32l49.36-37.2a42.832 42.832 0 0 0-10.72-20.86l-26.68 20.11a3.957 3.957 0 0 1-4.76-6.32l25.4-19.14c-1.71-1.26-3.51-2.4-5.4-3.39l-43.24 32.58a3.957 3.957 0 0 1-4.76-6.32l39.36-29.66c-3.61-.98-7.4-1.52-11.33-1.52-23.72 0-42.95 19.23-42.95 42.95 0 11.93 4.87 22.73 12.73 30.51l41.17-31.03a3.957 3.957 0 0 1 4.76 6.32l-39.64 29.87c6.84 4.6 15.07 7.28 23.93 7.28 23.44 0 42.48-18.77 42.93-42.1l-45.4 34.24z"/><path d="M12.73-25.1c-5.66 0-10.61.35-10.61.35V0h9.19v-7.96s1.77.18 3.19.18c6.01 0 9.54-3.53 9.54-8.66 0-5.13-3.53-8.66-11.31-8.66Zm-1.42 10.6v-3.89h1.42c1.24 0 2.12.89 2.12 1.95s-.88 1.94-2.12 1.94Zm22.46-4.77c-4.78 0-7.43 2.83-7.43 2.83l3.01 4.77s1.41-1.41 3.18-1.41c2.83 0 3.18 1.94 3.18 1.94h-2.83c-6.01 0-8.48 2.48-8.48 5.84S26.87.53 30.76.53c3.18 0 4.6-2.65 4.6-2.65L36.07 0h8.13v-9.37c0-5.48-4.42-9.9-10.43-9.9Zm.17 14.14c-.53 0-1.06-.53-1.06-1.06 0-1.06.89-1.94 2.83-1.94 0 2.12-.88 3-1.77 3ZM47.38 0h8.49v-26.17h-8.49Zm21.21-19.27c-5.48 0-9.9 4.42-9.9 9.9S63.11.53 69.13.53c4.77 0 7.42-2.83 7.42-2.83l-3-4.77s-1.42 1.41-3.19 1.41c-2.83 0-3.18-1.94-3.18-1.94H78.5v-1.77c0-5.48-4.42-9.9-9.91-9.9ZM67-10.96c0-1.42.71-2.12 1.59-2.12.89 0 1.6.7 1.6 2.12Zm38.37-2.12s4.59-.89 4.59-5.13c0-3.71-3.18-6.89-11.13-6.89-5.48 0-10.43.35-10.43.35V0s4.95.35 10.6.35c8.84 0 12.02-3.18 12.02-7.07 0-5.3-5.65-6.19-5.65-6.19Zm-7.78-5.66h1.24c1.23 0 1.94.71 1.94 1.59 0 .89-.71 1.59-1.94 1.59h-1.24ZM99-6.01h-1.41v-3.54H99c1.42 0 2.12.71 2.12 1.77s-.7 1.77-2.12 1.77ZM113.85 0h8.49v-26.17h-8.49Zm18.39.53c3.18 0 4.6-2.65 4.6-2.65l.7 2.12h8.14v-18.74h-8.49v9.9c0 1.41-.71 2.12-1.41 2.12-.71 0-1.42-.71-1.42-2.12v-9.9h-8.48v9.9c0 6.54 2.82 9.37 6.36 9.37Zm26.16-19.8c-5.48 0-9.9 4.42-9.9 9.9s4.42 9.9 10.44 9.9c4.77 0 7.42-2.83 7.42-2.83l-3.01-4.77s-1.41 1.41-3.18 1.41c-2.83 0-3.18-1.94-3.18-1.94h11.32v-1.77c0-5.48-4.42-9.9-9.91-9.9Zm-1.59 8.31c0-1.42.71-2.12 1.59-2.12.89 0 1.6.7 1.6 2.12Z" transform="translate(-241.909 193.901)"/><path d="M42.72 25.25c-2.5 0-4.25-1.62-4.25-1.62l-2.38 3.75s2.25 3 7.75 3c4.38 0 7.13-2.75 7.13-5.63 0-5.5-6.75-5.5-6.75-6.75 0-.37.37-.75 1-.75 1.75 0 3.25 1.38 3.25 1.38l2.37-3.76s-2.25-2.74-6.75-2.74c-4.37 0-7.12 2.75-7.12 5.62 0 5.5 6.75 5.5 6.75 6.75 0 .38-.38.75-1 .75Zm11-3.5v2.13c0 4.37 2.25 6.62 6 6.62 1.25 0 2.25-.25 2.25-.25v-5s-.5.13-1 .13c-.75 0-1.25-.5-1.25-1.5v-2.13h2.25v-5h-2.25V12.5h-6v4.25h-1.75v5Zm15.25 8.63c2.25 0 3.25-1.88 3.25-1.88l.5 1.5h5.75V16.75h-6v7c0 1-.5 1.5-1 1.5s-1-.5-1-1.5v-7h-6v7c0 4.63 2 6.63 4.5 6.63Zm11.5-7c0 4.5 2.5 7 5.25 7 2.5 0 3.5-1.88 3.5-1.88l.5 1.5h5.5V11.5h-6v6.75s-1-1.87-3.5-1.87c-2.75 0-5.25 2.5-5.25 7Zm6.25 0c0-1.25.62-1.88 1.37-1.88.75 0 1.38.63 1.38 1.88s-.63 1.87-1.38 1.87c-.75 0-1.37-.62-1.37-1.87Zm11-6.63V30h6V16.75Zm0-1.5h6V10.5h-6Zm8 8.13c0 3.87 3.12 7 7.62 7s7.63-3.13 7.63-7c0-3.88-3.13-7-7.63-7s-7.62 3.12-7.62 7Zm9.25 0c0 1.12-.75 1.87-1.63 1.87-.87 0-1.62-.75-1.62-1.87 0-1.13.75-1.88 1.62-1.88.88 0 1.63.75 1.63 1.88ZM134.09 26c0-4-4.87-4.25-4.87-5 0-.25.25-.5.62-.5 1.38 0 2.38 1 2.38 1l1.87-3s-2.12-2.12-5.5-2.12c-3.87 0-5.87 2-5.87 4.37 0 4 4.87 4.25 4.87 5 0 .25-.25.5-.62.5-1.88 0-3.13-1.25-3.13-1.25l-1.87 3s2.12 2.38 6.25 2.38c3.87 0 5.87-2 5.87-4.38Z" transform="translate(-241.909 193.901)"/></g></switch></svg>
